<mxfile host="app.diagrams.net" modified="2024-06-05T01:31:41.039Z" agent="Mozilla/5.0 (Macintosh; Intel Mac OS X 10_15_7) AppleWebKit/537.36 (KHTML, like Gecko) Chrome/125.0.0.0 Safari/537.36" version="24.4.13" etag="QcOSXv2woevUK_IF7-C9" type="github">
  <diagram name="第 1 页" id="wePbHROVYZDqfjGMT-Pm">
    <mxGraphModel>
      <root>
        <mxCell id="0" />
        <mxCell id="1" parent="0" />
      </root>
    </mxGraphModel>
  </diagram>
</mxfile>
